STARTFONT 2.1
FONT -FontForge-Righteous-Book-R-Normal--16-160-72-72-P-86-ISO10646-1
SIZE 16 72 72
FONTBOUNDINGBOX 19 20 -2 -4
COMMENT "Generated by fontforge, http://fontforge.sourceforge.net"
COMMENT "Copyright (c) 2011 by Brian J. Bonislawsky DBA Astigmatic (AOETI) (astigma@astigmatic.com), with ReservedFont Name "Righteous""
STARTPROPERTIES 39
FOUNDRY "FontForge"
FAMILY_NAME "Righteous"
WEIGHT_NAME "Book"
SLANT "R"
SETWIDTH_NAME "Normal"
ADD_STYLE_NAME ""
PIXEL_SIZE 16
POINT_SIZE 160
RESOLUTION_X 72
RESOLUTION_Y 72
SPACING "P"
AVERAGE_WIDTH 86
CHARSET_REGISTRY "ISO10646"
CHARSET_ENCODING "1"
FONTNAME_REGISTRY ""
CHARSET_COLLECTIONS "ISO8859-2 ISO8859-9 ISO8859-4 ISO10646-1"
FONT_NAME "Righteous-Regular"
FACE_NAME "Righteous"
COPYRIGHT "Copyright (c) 2011 by Brian J. Bonislawsky DBA Astigmatic (AOETI) (astigma@astigmatic.com), with ReservedFont Name "Righteous""
FONT_VERSION "1.000"
FONT_ASCENT 13
FONT_DESCENT 3
UNDERLINE_POSITION -2
UNDERLINE_THICKNESS 1
X_HEIGHT 7
CAP_HEIGHT 10
RAW_ASCENT 799
RAW_DESCENT 200
NORM_SPACE 4
RELATIVE_WEIGHT 40
RELATIVE_SETWIDTH 50
SUPERSCRIPT_X 0
SUPERSCRIPT_Y 7
SUPERSCRIPT_SIZE 10
SUBSCRIPT_X 0
SUBSCRIPT_Y 2
SUBSCRIPT_SIZE 10
AVG_LOWERCASE_WIDTH 85
AVG_UPPERCASE_WIDTH 101
ENDPROPERTIES
CHARS 372
STARTCHAR space
ENCODING 32
SWIDTH 279 0
DWIDTH 4 0
BBX 1 1 0 0
BITMAP
00
ENDCHAR
STARTCHAR exclam
ENCODING 33
SWIDTH 274 0
DWIDTH 4 0
BBX 3 12 1 -1
BITMAP
E0
C0
C0
C0
C0
C0
C0
C0
00
C0
E0
40
ENDCHAR
STARTCHAR quotedbl
ENCODING 34
SWIDTH 409 0
DWIDTH 7 0
BBX 5 3 1 8
BITMAP
D8
D8
D8
ENDCHAR
STARTCHAR numbersign
ENCODING 35
SWIDTH 561 0
DWIDTH 9 0
BBX 7 7 1 2
BITMAP
36
7E
FE
6C
FE
FC
D8
ENDCHAR
STARTCHAR dollar
ENCODING 36
SWIDTH 458 0
DWIDTH 7 0
BBX 6 11 1 0
BITMAP
20
20
F8
F8
F0
F8
0C
F8
F0
20
20
ENDCHAR
STARTCHAR percent
ENCODING 37
SWIDTH 685 0
DWIDTH 11 0
BBX 9 11 1 0
BITMAP
F300
B300
9600
B400
FC00
0800
1F80
1480
3480
6680
6380
ENDCHAR
STARTCHAR ampersand
ENCODING 38
SWIDTH 485 0
DWIDTH 8 0
BBX 6 11 1 0
BITMAP
10
7C
FC
C0
C0
78
C0
C0
FC
7C
10
ENDCHAR
STARTCHAR quotesingle
ENCODING 39
SWIDTH 238 0
DWIDTH 4 0
BBX 2 3 1 8
BITMAP
C0
C0
C0
ENDCHAR
STARTCHAR parenleft
ENCODING 40
SWIDTH 351 0
DWIDTH 6 0
BBX 4 15 1 -2
BITMAP
30
60
60
E0
C0
C0
C0
C0
C0
C0
C0
E0
60
70
30
ENDCHAR
STARTCHAR parenright
ENCODING 41
SWIDTH 351 0
DWIDTH 6 0
BBX 5 15 0 -2
BITMAP
E0
70
30
30
38
18
18
18
18
38
38
30
70
60
E0
ENDCHAR
STARTCHAR asterisk
ENCODING 42
SWIDTH 589 0
DWIDTH 9 0
BBX 8 8 1 5
BITMAP
18
98
FF
FE
38
7C
EE
44
ENDCHAR
STARTCHAR plus
ENCODING 43
SWIDTH 485 0
DWIDTH 8 0
BBX 6 7 1 2
BITMAP
30
30
FC
FC
30
30
30
ENDCHAR
STARTCHAR comma
ENCODING 44
SWIDTH 264 0
DWIDTH 4 0
BBX 2 4 1 -2
BITMAP
C0
C0
40
C0
ENDCHAR
STARTCHAR hyphen
ENCODING 45
SWIDTH 528 0
DWIDTH 8 0
BBX 7 2 1 5
BITMAP
FE
FE
ENDCHAR
STARTCHAR period
ENCODING 46
SWIDTH 263 0
DWIDTH 4 0
BBX 2 2 1 0
BITMAP
C0
C0
ENDCHAR
STARTCHAR slash
ENCODING 47
SWIDTH 490 0
DWIDTH 8 0
BBX 6 11 1 0
BITMAP
0C
1C
18
18
30
30
70
60
E0
C0
C0
ENDCHAR
STARTCHAR zero
ENCODING 48
SWIDTH 642 0
DWIDTH 10 0
BBX 9 11 1 0
BITMAP
7E00
7F00
E300
C300
C380
C380
C380
C300
E300
7F00
3E00
ENDCHAR
STARTCHAR one
ENCODING 49
SWIDTH 317 0
DWIDTH 5 0
BBX 3 11 1 0
BITMAP
E0
E0
60
60
60
60
60
60
60
60
60
ENDCHAR
STARTCHAR two
ENCODING 50
SWIDTH 570 0
DWIDTH 9 0
BBX 8 11 1 0
BITMAP
FC
FE
06
07
3E
FE
F0
C0
C0
FE
FE
ENDCHAR
STARTCHAR three
ENCODING 51
SWIDTH 586 0
DWIDTH 9 0
BBX 8 11 1 0
BITMAP
FC
FE
07
07
7E
7E
7E
07
07
FE
FC
ENDCHAR
STARTCHAR four
ENCODING 52
SWIDTH 630 0
DWIDTH 10 0
BBX 8 11 1 0
BITMAP
60
E6
E6
C6
C6
C6
C6
FF
FF
06
06
ENDCHAR
STARTCHAR five
ENCODING 53
SWIDTH 585 0
DWIDTH 9 0
BBX 8 11 1 0
BITMAP
FE
FE
C0
C0
FC
FE
07
03
07
FE
FC
ENDCHAR
STARTCHAR six
ENCODING 54
SWIDTH 615 0
DWIDTH 10 0
BBX 8 11 1 0
BITMAP
38
70
60
FE
FF
C3
C3
C3
E7
FE
7E
ENDCHAR
STARTCHAR seven
ENCODING 55
SWIDTH 516 0
DWIDTH 8 0
BBX 8 11 0 0
BITMAP
FF
FF
06
06
0E
0C
0C
1C
18
18
38
ENDCHAR
STARTCHAR eight
ENCODING 56
SWIDTH 618 0
DWIDTH 10 0
BBX 8 12 1 0
BITMAP
18
7E
FE
C7
E7
7E
7E
C3
C3
C3
FF
7E
ENDCHAR
STARTCHAR nine
ENCODING 57
SWIDTH 616 0
DWIDTH 10 0
BBX 8 12 1 0
BITMAP
10
7E
FF
C7
C3
C3
C7
FF
7F
06
0E
1C
ENDCHAR
STARTCHAR colon
ENCODING 58
SWIDTH 276 0
DWIDTH 4 0
BBX 3 8 1 -1
BITMAP
40
E0
C0
00
00
C0
E0
40
ENDCHAR
STARTCHAR semicolon
ENCODING 59
SWIDTH 276 0
DWIDTH 4 0
BBX 3 9 1 -2
BITMAP
40
E0
C0
00
00
C0
E0
40
40
ENDCHAR
STARTCHAR less
ENCODING 60
SWIDTH 478 0
DWIDTH 8 0
BBX 6 9 1 2
BITMAP
08
1C
38
70
E0
E0
70
3C
18
ENDCHAR
STARTCHAR equal
ENCODING 61
SWIDTH 539 0
DWIDTH 9 0
BBX 7 5 1 3
BITMAP
FE
FE
00
FE
FE
ENDCHAR
STARTCHAR greater
ENCODING 62
SWIDTH 478 0
DWIDTH 8 0
BBX 6 9 1 2
BITMAP
40
E0
70
38
1C
3C
78
F0
C0
ENDCHAR
STARTCHAR question
ENCODING 63
SWIDTH 603 0
DWIDTH 10 0
BBX 8 12 1 -1
BITMAP
FE
FF
03
03
0F
3E
38
30
00
30
70
20
ENDCHAR
STARTCHAR at
ENCODING 64
SWIDTH 629 0
DWIDTH 10 0
BBX 9 9 1 0
BITMAP
1800
7E00
C300
BD00
B580
BD80
DF00
6000
3800
ENDCHAR
STARTCHAR A
ENCODING 65
SWIDTH 673 0
DWIDTH 11 0
BBX 9 11 1 0
BITMAP
3E00
7F00
E380
C380
C180
C180
C180
FF80
FF80
C180
C180
ENDCHAR
STARTCHAR B
ENCODING 66
SWIDTH 666 0
DWIDTH 11 0
BBX 9 11 1 0
BITMAP
FF00
FF80
C180
C180
FF80
FF00
FF80
C180
C380
FF00
FE00
ENDCHAR
STARTCHAR C
ENCODING 67
SWIDTH 640 0
DWIDTH 10 0
BBX 10 11 0 0
BITMAP
1F80
3FC0
7080
6000
6000
E000
6000
6000
7080
3FC0
1F80
ENDCHAR
STARTCHAR D
ENCODING 68
SWIDTH 653 0
DWIDTH 10 0
BBX 9 11 1 0
BITMAP
FC00
FE00
C700
C380
C180
C180
C180
C380
C700
FE00
FC00
ENDCHAR
STARTCHAR E
ENCODING 69
SWIDTH 578 0
DWIDTH 9 0
BBX 8 11 1 0
BITMAP
FF
FF
C0
C0
FC
FC
FC
C0
C0
FF
FF
ENDCHAR
STARTCHAR F
ENCODING 70
SWIDTH 562 0
DWIDTH 9 0
BBX 8 11 1 0
BITMAP
FF
FF
C0
C0
FC
FC
FC
C0
C0
C0
C0
ENDCHAR
STARTCHAR G
ENCODING 71
SWIDTH 665 0
DWIDTH 11 0
BBX 10 11 0 0
BITMAP
1F80
3FC0
7080
6000
6000
E0C0
60C0
60C0
70C0
3FC0
1F80
ENDCHAR
STARTCHAR H
ENCODING 72
SWIDTH 689 0
DWIDTH 11 0
BBX 9 11 1 0
BITMAP
C180
C180
C180
C180
FF80
FF80
FF80
C180
C180
C180
C180
ENDCHAR
STARTCHAR I
ENCODING 73
SWIDTH 270 0
DWIDTH 4 0
BBX 2 11 1 0
BITMAP
C0
C0
C0
C0
C0
C0
C0
C0
C0
C0
C0
ENDCHAR
STARTCHAR J
ENCODING 74
SWIDTH 416 0
DWIDTH 7 0
BBX 6 11 0 0
BITMAP
0C
0C
0C
0C
0C
0C
0C
1C
38
F8
E0
ENDCHAR
STARTCHAR K
ENCODING 75
SWIDTH 625 0
DWIDTH 10 0
BBX 9 11 1 0
BITMAP
C300
C700
CE00
CC00
D800
FC00
FE00
E600
C700
C300
C380
ENDCHAR
STARTCHAR L
ENCODING 76
SWIDTH 562 0
DWIDTH 9 0
BBX 8 11 1 0
BITMAP
C0
C0
C0
C0
C0
C0
C0
C0
C0
FF
FF
ENDCHAR
STARTCHAR M
ENCODING 77
SWIDTH 819 0
DWIDTH 13 0
BBX 11 11 1 0
BITMAP
7FC0
FFE0
CE60
CE60
CE60
CE60
CE60
CE60
CE60
CE60
CE60
ENDCHAR
STARTCHAR N
ENCODING 78
SWIDTH 689 0
DWIDTH 11 0
BBX 9 11 1 0
BITMAP
E180
E180
F180
F980
D980
DD80
CD80
C780
C780
C380
C380
ENDCHAR
STARTCHAR O
ENCODING 79
SWIDTH 777 0
DWIDTH 12 0
BBX 12 11 0 0
BITMAP
1F80
3FC0
70E0
6070
6030
E030
6030
6070
70E0
3FC0
1F80
ENDCHAR
STARTCHAR P
ENCODING 80
SWIDTH 642 0
DWIDTH 10 0
BBX 9 11 1 0
BITMAP
FE00
FF00
C380
C180
C180
C380
C700
FF00
FC00
C000
C000
ENDCHAR
STARTCHAR Q
ENCODING 81
SWIDTH 777 0
DWIDTH 12 0
BBX 12 13 0 -2
BITMAP
1F80
3FC0
70E0
6070
6030
E030
6030
6070
70E0
3FC0
1F80
0180
01C0
ENDCHAR
STARTCHAR R
ENCODING 82
SWIDTH 651 0
DWIDTH 10 0
BBX 9 11 1 0
BITMAP
FE00
FF00
C380
C180
C180
C380
C700
FF00
FE00
C700
C300
ENDCHAR
STARTCHAR S
ENCODING 83
SWIDTH 610 0
DWIDTH 10 0
BBX 9 11 0 0
BITMAP
3F80
7F80
E000
E000
7E00
7F80
1F80
0180
0180
7F80
7F00
ENDCHAR
STARTCHAR T
ENCODING 84
SWIDTH 578 0
DWIDTH 9 0
BBX 9 11 0 0
BITMAP
FF80
FF80
0C00
0C00
0C00
0C00
0C00
0C00
0C00
0C00
0C00
ENDCHAR
STARTCHAR U
ENCODING 85
SWIDTH 673 0
DWIDTH 11 0
BBX 9 11 1 0
BITMAP
C180
C180
C180
C180
C180
C180
C180
C380
E700
7F00
3C00
ENDCHAR
STARTCHAR V
ENCODING 86
SWIDTH 602 0
DWIDTH 10 0
BBX 9 11 0 0
BITMAP
E180
6180
6380
7300
3300
3700
3E00
1E00
1E00
1C00
0C00
ENDCHAR
STARTCHAR W
ENCODING 87
SWIDTH 819 0
DWIDTH 13 0
BBX 11 11 1 0
BITMAP
CE60
CE60
CE60
CE60
CE60
CE60
CE60
CE60
CE60
FFE0
7BC0
ENDCHAR
STARTCHAR X
ENCODING 88
SWIDTH 608 0
DWIDTH 10 0
BBX 9 11 0 0
BITMAP
E180
7380
3700
3E00
1E00
1C00
1E00
3F00
3300
7380
E180
ENDCHAR
STARTCHAR Y
ENCODING 89
SWIDTH 620 0
DWIDTH 10 0
BBX 9 11 0 0
BITMAP
E180
E180
E180
E180
6180
7F80
3F00
0C00
0C00
0C00
0C00
ENDCHAR
STARTCHAR Z
ENCODING 90
SWIDTH 586 0
DWIDTH 9 0
BBX 9 11 0 0
BITMAP
FF80
FF00
0700
0E00
0E00
1C00
1800
3800
3000
7F80
7F80
ENDCHAR
STARTCHAR bracketleft
ENCODING 91
SWIDTH 380 0
DWIDTH 6 0
BBX 5 15 1 -2
BITMAP
F8
F8
C0
C0
C0
C0
C0
C0
C0
C0
C0
C0
F8
F8
F8
ENDCHAR
STARTCHAR backslash
ENCODING 92
SWIDTH 490 0
DWIDTH 8 0
BBX 6 11 1 0
BITMAP
C0
C0
60
60
70
30
38
18
18
1C
0C
ENDCHAR
STARTCHAR bracketright
ENCODING 93
SWIDTH 380 0
DWIDTH 6 0
BBX 4 15 1 -2
BITMAP
F0
F0
30
30
30
30
30
30
30
30
30
30
F0
F0
F0
ENDCHAR
STARTCHAR asciicircum
ENCODING 94
SWIDTH 293 0
DWIDTH 5 0
BBX 4 3 0 8
BITMAP
20
F0
D0
ENDCHAR
STARTCHAR underscore
ENCODING 95
SWIDTH 598 0
DWIDTH 10 0
BBX 6 2 2 -4
BITMAP
FC
FC
ENDCHAR
STARTCHAR grave
ENCODING 96
SWIDTH 225 0
DWIDTH 4 0
BBX 3 3 0 8
BITMAP
40
E0
20
ENDCHAR
STARTCHAR a
ENCODING 97
SWIDTH 607 0
DWIDTH 10 0
BBX 9 9 0 0
BITMAP
1C00
3E80
7780
6380
E180
E180
6380
7F80
3E80
ENDCHAR
STARTCHAR b
ENCODING 98
SWIDTH 597 0
DWIDTH 10 0
BBX 8 12 1 0
BITMAP
C0
C0
C0
D8
FE
FF
C3
C3
C3
E7
7E
3C
ENDCHAR
STARTCHAR c
ENCODING 99
SWIDTH 521 0
DWIDTH 8 0
BBX 8 9 0 0
BITMAP
1C
3F
77
62
E0
E0
62
7F
3E
ENDCHAR
STARTCHAR d
ENCODING 100
SWIDTH 606 0
DWIDTH 10 0
BBX 9 12 0 0
BITMAP
0180
0180
0180
1D80
3F80
7780
6380
E180
E180
6380
7F80
3E80
ENDCHAR
STARTCHAR e
ENCODING 101
SWIDTH 524 0
DWIDTH 8 0
BBX 8 9 0 0
BITMAP
1C
3F
77
66
EC
F8
7A
7F
3E
ENDCHAR
STARTCHAR f
ENCODING 102
SWIDTH 395 0
DWIDTH 6 0
BBX 7 13 0 0
BITMAP
06
1E
3E
70
70
FC
FC
70
70
70
70
70
70
ENDCHAR
STARTCHAR g
ENCODING 103
SWIDTH 607 0
DWIDTH 10 0
BBX 9 12 0 -3
BITMAP
1C00
3E80
7780
6380
E180
E180
6380
7F80
3F80
0380
0F00
0E00
ENDCHAR
STARTCHAR h
ENCODING 104
SWIDTH 562 0
DWIDTH 9 0
BBX 7 12 1 0
BITMAP
C0
C0
C0
D0
FC
FE
C6
C6
C6
C6
C6
C6
ENDCHAR
STARTCHAR i
ENCODING 105
SWIDTH 235 0
DWIDTH 4 0
BBX 3 12 0 0
BITMAP
60
E0
60
00
60
60
60
60
60
60
60
60
ENDCHAR
STARTCHAR j
ENCODING 106
SWIDTH 237 0
DWIDTH 4 0
BBX 5 15 -2 -3
BITMAP
18
18
18
00
18
18
18
18
18
18
18
18
38
F0
E0
ENDCHAR
STARTCHAR k
ENCODING 107
SWIDTH 539 0
DWIDTH 9 0
BBX 7 12 1 0
BITMAP
C0
C0
C0
C0
CE
CC
D8
F8
FC
EC
CE
C6
ENDCHAR
STARTCHAR l
ENCODING 108
SWIDTH 235 0
DWIDTH 4 0
BBX 2 12 1 0
BITMAP
C0
C0
C0
C0
C0
C0
C0
C0
C0
C0
C0
C0
ENDCHAR
STARTCHAR m
ENCODING 109
SWIDTH 762 0
DWIDTH 12 0
BBX 10 9 1 0
BITMAP
0100
FFC0
FFC0
CCC0
CCC0
CCC0
CCC0
CCC0
CCC0
ENDCHAR
STARTCHAR n
ENCODING 110
SWIDTH 562 0
DWIDTH 9 0
BBX 7 9 1 0
BITMAP
10
FC
FE
C6
C6
C6
C6
C6
C6
ENDCHAR
STARTCHAR o
ENCODING 111
SWIDTH 579 0
DWIDTH 9 0
BBX 9 9 0 0
BITMAP
1C00
3F00
7700
6380
E180
E180
6380
7F00
3E00
ENDCHAR
STARTCHAR p
ENCODING 112
SWIDTH 608 0
DWIDTH 10 0
BBX 8 12 1 -3
BITMAP
18
FE
FF
C3
C3
C3
E3
FF
FC
C0
C0
C0
ENDCHAR
STARTCHAR q
ENCODING 113
SWIDTH 607 0
DWIDTH 10 0
BBX 9 12 0 -3
BITMAP
1C00
3E80
7780
6380
E180
E180
6380
7F80
3F80
0180
0180
0180
ENDCHAR
STARTCHAR r
ENCODING 114
SWIDTH 414 0
DWIDTH 7 0
BBX 5 8 1 0
BITMAP
F8
F8
C0
C0
C0
C0
C0
C0
ENDCHAR
STARTCHAR s
ENCODING 115
SWIDTH 523 0
DWIDTH 8 0
BBX 7 8 1 0
BITMAP
FE
FE
C0
FC
7E
06
FE
FC
ENDCHAR
STARTCHAR t
ENCODING 116
SWIDTH 437 0
DWIDTH 7 0
BBX 7 12 0 0
BITMAP
60
60
60
60
FE
FE
60
60
60
70
3E
1E
ENDCHAR
STARTCHAR u
ENCODING 117
SWIDTH 562 0
DWIDTH 9 0
BBX 7 8 1 0
BITMAP
C6
C6
C6
C6
C6
C6
FE
7A
ENDCHAR
STARTCHAR v
ENCODING 118
SWIDTH 532 0
DWIDTH 9 0
BBX 8 8 0 0
BITMAP
E3
67
66
76
3E
3C
1C
1C
ENDCHAR
STARTCHAR w
ENCODING 119
SWIDTH 756 0
DWIDTH 12 0
BBX 10 8 1 0
BITMAP
CCC0
CCC0
CCC0
CCC0
CCC0
CCC0
FFC0
7F80
ENDCHAR
STARTCHAR x
ENCODING 120
SWIDTH 528 0
DWIDTH 8 0
BBX 8 8 0 0
BITMAP
67
76
3C
1C
3C
3E
76
E3
ENDCHAR
STARTCHAR y
ENCODING 121
SWIDTH 562 0
DWIDTH 9 0
BBX 7 11 1 -3
BITMAP
C6
C6
C6
C6
C6
C6
FE
7E
0E
3C
38
ENDCHAR
STARTCHAR z
ENCODING 122
SWIDTH 481 0
DWIDTH 8 0
BBX 7 8 0 0
BITMAP
FE
FC
1C
18
38
30
7E
7E
ENDCHAR
STARTCHAR braceleft
ENCODING 123
SWIDTH 466 0
DWIDTH 7 0
BBX 7 15 0 -2
BITMAP
1E
1E
38
38
38
38
F0
F0
30
38
38
38
3E
1E
0E
ENDCHAR
STARTCHAR bar
ENCODING 124
SWIDTH 267 0
DWIDTH 4 0
BBX 2 15 1 -2
BITMAP
C0
C0
C0
C0
C0
C0
C0
C0
C0
C0
C0
C0
C0
C0
C0
ENDCHAR
STARTCHAR braceright
ENCODING 125
SWIDTH 466 0
DWIDTH 7 0
BBX 6 15 1 -2
BITMAP
E0
F0
30
30
30
30
3C
1C
38
30
30
30
F0
F0
E0
ENDCHAR
STARTCHAR asciitilde
ENCODING 126
SWIDTH 451 0
DWIDTH 7 0
BBX 5 3 1 4
BITMAP
E8
F8
D0
ENDCHAR
STARTCHAR nonbreakingspace
ENCODING 160
SWIDTH 279 0
DWIDTH 4 0
BBX 1 1 0 0
BITMAP
00
ENDCHAR
STARTCHAR exclamdown
ENCODING 161
SWIDTH 274 0
DWIDTH 4 0
BBX 3 11 1 -2
BITMAP
C0
C0
00
C0
C0
C0
C0
C0
C0
C0
E0
ENDCHAR
STARTCHAR cent
ENCODING 162
SWIDTH 462 0
DWIDTH 7 0
BBX 6 11 1 0
BITMAP
30
30
78
CC
C0
80
C8
FC
30
30
30
ENDCHAR
STARTCHAR sterling
ENCODING 163
SWIDTH 681 0
DWIDTH 11 0
BBX 9 11 1 0
BITMAP
3800
7800
6000
6000
6000
F800
F800
6000
6180
7F80
7F00
ENDCHAR
STARTCHAR currency
ENCODING 164
SWIDTH 454 0
DWIDTH 7 0
BBX 6 7 1 2
BITMAP
80
FC
D8
88
C8
FC
80
ENDCHAR
STARTCHAR yen
ENCODING 165
SWIDTH 653 0
DWIDTH 10 0
BBX 9 11 1 0
BITMAP
C380
C380
C380
C380
C300
FF00
7E00
FF00
FF00
1800
1800
ENDCHAR
STARTCHAR brokenbar
ENCODING 166
SWIDTH 269 0
DWIDTH 4 0
BBX 2 15 1 -2
BITMAP
C0
C0
C0
C0
C0
C0
C0
00
C0
C0
C0
C0
C0
C0
C0
ENDCHAR
STARTCHAR section
ENCODING 167
SWIDTH 569 0
DWIDTH 9 0
BBX 7 11 1 0
BITMAP
7E
FE
C0
FE
FE
C6
FE
7E
06
FE
FC
ENDCHAR
STARTCHAR dieresis
ENCODING 168
SWIDTH 300 0
DWIDTH 5 0
BBX 5 1 0 9
BITMAP
D8
ENDCHAR
STARTCHAR copyright
ENCODING 169
SWIDTH 655 0
DWIDTH 11 0
BBX 9 9 1 1
BITMAP
3E00
4300
BD00
A080
A080
A180
FD00
6300
3C00
ENDCHAR
STARTCHAR ordfeminine
ENCODING 170
SWIDTH 451 0
DWIDTH 7 0
BBX 5 7 1 4
BITMAP
78
88
88
D8
70
00
F8
ENDCHAR
STARTCHAR guillemotleft
ENCODING 171
SWIDTH 704 0
DWIDTH 11 0
BBX 10 8 1 0
BITMAP
1080
3980
7300
E600
E700
7380
39C0
1080
ENDCHAR
STARTCHAR logicalnot
ENCODING 172
SWIDTH 529 0
DWIDTH 8 0
BBX 7 4 1 3
BITMAP
FE
FE
0C
0C
ENDCHAR
STARTCHAR uni00AD
ENCODING 173
SWIDTH 418 0
DWIDTH 7 0
BBX 5 2 1 5
BITMAP
F8
F8
ENDCHAR
STARTCHAR registered
ENCODING 174
SWIDTH 439 0
DWIDTH 7 0
BBX 5 6 1 5
BITMAP
58
F8
50
E0
88
20
ENDCHAR
STARTCHAR macron
ENCODING 175
SWIDTH 247 0
DWIDTH 4 0
BBX 4 1 0 9
BITMAP
F0
ENDCHAR
STARTCHAR degree
ENCODING 176
SWIDTH 381 0
DWIDTH 6 0
BBX 5 5 1 6
BITMAP
60
F0
98
F0
70
ENDCHAR
STARTCHAR plusminus
ENCODING 177
SWIDTH 516 0
DWIDTH 8 0
BBX 6 9 1 0
BITMAP
30
30
FC
FC
30
30
00
FC
FC
ENDCHAR
STARTCHAR twosuperior
ENCODING 178
SWIDTH 355 0
DWIDTH 6 0
BBX 4 5 1 6
BITMAP
F0
30
F0
80
F0
ENDCHAR
STARTCHAR threesuperior
ENCODING 179
SWIDTH 354 0
DWIDTH 6 0
BBX 4 5 1 6
BITMAP
F0
30
70
30
F0
ENDCHAR
STARTCHAR acute
ENCODING 180
SWIDTH 225 0
DWIDTH 4 0
BBX 4 3 0 8
BITMAP
20
70
C0
ENDCHAR
STARTCHAR mu
ENCODING 181
SWIDTH 571 0
DWIDTH 9 0
BBX 7 12 1 -4
BITMAP
C6
C6
C6
C6
C6
E6
FE
FC
C0
C0
C0
C0
ENDCHAR
STARTCHAR paragraph
ENCODING 182
SWIDTH 808 0
DWIDTH 13 0
BBX 11 11 1 0
BITMAP
3FE0
7FE0
EE60
CE60
CE60
CE60
FE60
7E60
1E60
0E60
0E60
ENDCHAR
STARTCHAR periodcentered
ENCODING 183
SWIDTH 261 0
DWIDTH 4 0
BBX 2 3 1 4
BITMAP
C0
C0
C0
ENDCHAR
STARTCHAR cedilla
ENCODING 184
SWIDTH 208 0
DWIDTH 3 0
BBX 3 4 0 -4
BITMAP
40
20
E0
40
ENDCHAR
STARTCHAR onesuperior
ENCODING 185
SWIDTH 231 0
DWIDTH 4 0
BBX 2 5 1 6
BITMAP
C0
C0
C0
C0
C0
ENDCHAR
STARTCHAR ordmasculine
ENCODING 186
SWIDTH 432 0
DWIDTH 7 0
BBX 5 7 1 4
BITMAP
70
88
88
D8
70
00
F8
ENDCHAR
STARTCHAR guillemotright
ENCODING 187
SWIDTH 703 0
DWIDTH 11 0
BBX 9 8 1 0
BITMAP
C400
E600
7300
3980
3980
6700
C600
0400
ENDCHAR
STARTCHAR onequarter
ENCODING 188
SWIDTH 648 0
DWIDTH 10 0
BBX 9 11 1 0
BITMAP
C600
4600
4C00
4800
5800
1400
3500
2500
6F80
CF80
C100
ENDCHAR
STARTCHAR onehalf
ENCODING 189
SWIDTH 637 0
DWIDTH 10 0
BBX 9 11 1 0
BITMAP
C600
4600
4C00
4800
5800
1600
3700
2380
6700
C700
C700
ENDCHAR
STARTCHAR threequarters
ENCODING 190
SWIDTH 708 0
DWIDTH 11 0
BBX 10 11 1 0
BITMAP
E300
3200
E600
3400
EC00
0A00
1A80
3280
37C0
67C0
6080
ENDCHAR
STARTCHAR questiondown
ENCODING 191
SWIDTH 602 0
DWIDTH 10 0
BBX 8 11 1 -2
BITMAP
0C
0C
00
0C
1C
78
F0
C0
C0
FF
7F
ENDCHAR
STARTCHAR Agrave
ENCODING 192
SWIDTH 673 0
DWIDTH 11 0
BBX 9 15 1 0
BITMAP
3000
3800
1800
0000
3E00
7F00
E380
C380
C180
C180
C180
FF80
FF80
C180
C180
ENDCHAR
STARTCHAR Aacute
ENCODING 193
SWIDTH 673 0
DWIDTH 11 0
BBX 9 15 1 0
BITMAP
0400
0E00
0800
0000
3E00
7F00
E380
C380
C180
C180
C180
FF80
FF80
C180
C180
ENDCHAR
STARTCHAR Acircumflex
ENCODING 194
SWIDTH 673 0
DWIDTH 11 0
BBX 9 15 1 0
BITMAP
0800
1C00
1400
0000
3E00
7F00
E380
C380
C180
C180
C180
FF80
FF80
C180
C180
ENDCHAR
STARTCHAR Atilde
ENCODING 195
SWIDTH 673 0
DWIDTH 11 0
BBX 9 14 1 0
BITMAP
3E00
3E00
3400
3E00
7F00
E380
C380
C180
C180
C180
FF80
FF80
C180
C180
ENDCHAR
STARTCHAR Adieresis
ENCODING 196
SWIDTH 673 0
DWIDTH 11 0
BBX 9 13 1 0
BITMAP
3600
0000
3E00
7F00
E380
C380
C180
C180
C180
FF80
FF80
C180
C180
ENDCHAR
STARTCHAR Aring
ENCODING 197
SWIDTH 673 0
DWIDTH 11 0
BBX 9 14 1 0
BITMAP
0800
1400
1C00
3E00
7F00
E380
C380
C180
C180
C180
FF80
FF80
C180
C180
ENDCHAR
STARTCHAR AE
ENCODING 198
SWIDTH 988 0
DWIDTH 16 0
BBX 14 11 1 0
BITMAP
3FFC
7FFC
E180
C180
C1F8
C1F8
C1F8
FF80
FF80
C1FC
C1FC
ENDCHAR
STARTCHAR Ccedilla
ENCODING 199
SWIDTH 640 0
DWIDTH 10 0
BBX 10 15 0 -4
BITMAP
1F80
3FC0
7080
6000
6000
E000
6000
6000
7080
3FC0
1F80
0400
0E00
0E00
0C00
ENDCHAR
STARTCHAR Egrave
ENCODING 200
SWIDTH 578 0
DWIDTH 9 0
BBX 8 15 1 0
BITMAP
20
70
18
00
FF
FF
C0
C0
FC
FC
FC
C0
C0
FF
FF
ENDCHAR
STARTCHAR Eacute
ENCODING 201
SWIDTH 578 0
DWIDTH 9 0
BBX 8 15 1 0
BITMAP
04
0E
18
00
FF
FF
C0
C0
FC
FC
FC
C0
C0
FF
FF
ENDCHAR
STARTCHAR Ecircumflex
ENCODING 202
SWIDTH 578 0
DWIDTH 9 0
BBX 8 15 1 0
BITMAP
18
3C
20
00
FF
FF
C0
C0
FC
FC
FC
C0
C0
FF
FF
ENDCHAR
STARTCHAR Edieresis
ENCODING 203
SWIDTH 578 0
DWIDTH 9 0
BBX 8 13 1 0
BITMAP
6C
24
FF
FF
C0
C0
FC
FC
FC
C0
C0
FF
FF
ENDCHAR
STARTCHAR Igrave
ENCODING 204
SWIDTH 270 0
DWIDTH 4 0
BBX 3 15 0 0
BITMAP
80
E0
60
00
60
60
60
60
60
60
60
60
60
60
60
ENDCHAR
STARTCHAR Iacute
ENCODING 205
SWIDTH 270 0
DWIDTH 4 0
BBX 4 15 1 0
BITMAP
20
70
40
00
C0
C0
C0
C0
C0
C0
C0
C0
C0
C0
C0
ENDCHAR
STARTCHAR Icircumflex
ENCODING 206
SWIDTH 270 0
DWIDTH 4 0
BBX 4 15 0 0
BITMAP
60
F0
10
00
60
60
60
60
60
60
60
60
60
60
60
ENDCHAR
STARTCHAR Idieresis
ENCODING 207
SWIDTH 270 0
DWIDTH 4 0
BBX 5 13 0 0
BITMAP
D8
10
60
60
60
60
60
60
60
60
60
60
60
ENDCHAR
STARTCHAR Eth
ENCODING 208
SWIDTH 672 0
DWIDTH 11 0
BBX 10 11 0 0
BITMAP
7E00
7F80
73C0
71C0
F8C0
F8C0
70C0
71C0
7380
7F80
7E00
ENDCHAR
STARTCHAR Ntilde
ENCODING 209
SWIDTH 689 0
DWIDTH 11 0
BBX 9 15 1 0
BITMAP
3A00
3E00
3400
0000
E180
E180
F180
F980
D980
DD80
CD80
C780
C780
C380
C380
ENDCHAR
STARTCHAR Ograve
ENCODING 210
SWIDTH 777 0
DWIDTH 12 0
BBX 12 15 0 0
BITMAP
0800
0E00
0600
0000
1F80
3FC0
70E0
6070
6030
E030
6030
6070
70E0
3FC0
1F80
ENDCHAR
STARTCHAR Oacute
ENCODING 211
SWIDTH 777 0
DWIDTH 12 0
BBX 12 15 0 0
BITMAP
0100
0380
0200
0000
1F80
3FC0
70E0
6070
6030
E030
6030
6070
70E0
3FC0
1F80
ENDCHAR
STARTCHAR Ocircumflex
ENCODING 212
SWIDTH 777 0
DWIDTH 12 0
BBX 12 15 0 0
BITMAP
0200
0F00
0500
0000
1F80
3FC0
70E0
6070
6030
E030
6030
6070
70E0
3FC0
1F80
ENDCHAR
STARTCHAR Otilde
ENCODING 213
SWIDTH 777 0
DWIDTH 12 0
BBX 12 15 0 0
BITMAP
0D80
0F80
0900
0000
1F80
3FC0
70E0
6070
6030
E030
6030
6070
70E0
3FC0
1F80
ENDCHAR
STARTCHAR Odieresis
ENCODING 214
SWIDTH 777 0
DWIDTH 12 0
BBX 12 13 0 0
BITMAP
0D80
0100
1F80
3FC0
70E0
6070
6030
E030
6030
6070
70E0
3FC0
1F80
ENDCHAR
STARTCHAR multiply
ENCODING 215
SWIDTH 479 0
DWIDTH 8 0
BBX 6 6 1 3
BITMAP
08
DC
F8
70
F8
D8
ENDCHAR
STARTCHAR Oslash
ENCODING 216
SWIDTH 777 0
DWIDTH 12 0
BBX 12 11 0 0
BITMAP
1FE0
3FC0
71E0
61F0
6330
E630
6C30
6C70
78E0
3FC0
7F80
ENDCHAR
STARTCHAR Ugrave
ENCODING 217
SWIDTH 673 0
DWIDTH 11 0
BBX 9 15 1 0
BITMAP
3000
3800
1800
0000
C180
C180
C180
C180
C180
C180
C180
C380
E700
7F00
3C00
ENDCHAR
STARTCHAR Uacute
ENCODING 218
SWIDTH 673 0
DWIDTH 11 0
BBX 9 15 1 0
BITMAP
0400
0E00
0C00
0000
C180
C180
C180
C180
C180
C180
C180
C380
E700
7F00
3C00
ENDCHAR
STARTCHAR Ucircumflex
ENCODING 219
SWIDTH 673 0
DWIDTH 11 0
BBX 9 15 1 0
BITMAP
0800
1C00
1400
0000
C180
C180
C180
C180
C180
C180
C180
C380
E700
7F00
3C00
ENDCHAR
STARTCHAR Udieresis
ENCODING 220
SWIDTH 673 0
DWIDTH 11 0
BBX 9 13 1 0
BITMAP
3600
0000
C180
C180
C180
C180
C180
C180
C180
C380
E700
7F00
3C00
ENDCHAR
STARTCHAR Yacute
ENCODING 221
SWIDTH 620 0
DWIDTH 10 0
BBX 9 15 0 0
BITMAP
0200
0700
0400
0000
E180
E180
E180
E180
6180
7F80
3F00
0C00
0C00
0C00
0C00
ENDCHAR
STARTCHAR Thorn
ENCODING 222
SWIDTH 637 0
DWIDTH 10 0
BBX 9 12 1 0
BITMAP
C000
C000
FE00
FF00
C380
C180
C180
C380
C700
FF00
FC00
C000
ENDCHAR
STARTCHAR germandbls
ENCODING 223
SWIDTH 813 0
DWIDTH 13 0
BBX 13 13 0 0
BITMAP
0600
1FC0
3FC0
70C0
70C0
F7C0
F780
7600
77F0
73F8
7018
77F8
77F0
ENDCHAR
STARTCHAR agrave
ENCODING 224
SWIDTH 607 0
DWIDTH 10 0
BBX 9 12 0 0
BITMAP
1000
3800
0800
1C00
3E80
7780
6380
E180
E180
6380
7F80
3E80
ENDCHAR
STARTCHAR aacute
ENCODING 225
SWIDTH 607 0
DWIDTH 10 0
BBX 9 12 0 0
BITMAP
0600
0E00
0C00
1C00
3E80
7780
6380
E180
E180
6380
7F80
3E80
ENDCHAR
STARTCHAR acircumflex
ENCODING 226
SWIDTH 607 0
DWIDTH 10 0
BBX 9 12 0 0
BITMAP
0800
1C00
1400
1C00
3E80
7780
6380
E180
E180
6380
7F80
3E80
ENDCHAR
STARTCHAR atilde
ENCODING 227
SWIDTH 607 0
DWIDTH 10 0
BBX 9 12 0 0
BITMAP
3A00
3E00
3400
1C00
3E80
7780
6380
E180
E180
6380
7F80
3E80
ENDCHAR
STARTCHAR adieresis
ENCODING 228
SWIDTH 607 0
DWIDTH 10 0
BBX 9 11 0 0
BITMAP
3600
0000
1C00
3E80
7780
6380
E180
E180
6380
7F80
3E80
ENDCHAR
STARTCHAR aring
ENCODING 229
SWIDTH 607 0
DWIDTH 10 0
BBX 9 12 0 0
BITMAP
1C00
1400
0C00
1C00
3E80
7780
6380
E180
E180
6380
7F80
3E80
ENDCHAR
STARTCHAR ae
ENCODING 230
SWIDTH 976 0
DWIDTH 16 0
BBX 15 9 0 0
BITMAP
1C18
3EFE
77FE
63CC
E1D8
E1F8
63F6
7FFE
3EBC
ENDCHAR
STARTCHAR ccedilla
ENCODING 231
SWIDTH 521 0
DWIDTH 8 0
BBX 8 13 0 -4
BITMAP
1C
3F
77
62
E0
E0
62
7F
3E
08
1C
1C
18
ENDCHAR
STARTCHAR egrave
ENCODING 232
SWIDTH 524 0
DWIDTH 8 0
BBX 8 12 0 0
BITMAP
30
38
18
1C
3F
77
66
EC
F8
7A
7F
3E
ENDCHAR
STARTCHAR eacute
ENCODING 233
SWIDTH 524 0
DWIDTH 8 0
BBX 8 12 0 0
BITMAP
06
0E
0C
1C
3F
77
66
EC
F8
7A
7F
3E
ENDCHAR
STARTCHAR ecircumflex
ENCODING 234
SWIDTH 524 0
DWIDTH 8 0
BBX 8 12 0 0
BITMAP
08
3C
14
1C
3F
77
66
EC
F8
7A
7F
3E
ENDCHAR
STARTCHAR edieresis
ENCODING 235
SWIDTH 524 0
DWIDTH 8 0
BBX 8 11 0 0
BITMAP
36
04
1C
3F
77
66
EC
F8
7A
7F
3E
ENDCHAR
STARTCHAR igrave
ENCODING 236
SWIDTH 235 0
DWIDTH 4 0
BBX 4 12 -1 0
BITMAP
40
E0
20
00
30
30
30
30
30
30
30
30
ENDCHAR
STARTCHAR iacute
ENCODING 237
SWIDTH 235 0
DWIDTH 4 0
BBX 4 12 1 0
BITMAP
20
70
C0
00
C0
C0
C0
C0
C0
C0
C0
C0
ENDCHAR
STARTCHAR icircumflex
ENCODING 238
SWIDTH 235 0
DWIDTH 4 0
BBX 4 12 0 0
BITMAP
60
F0
90
00
60
60
60
60
60
60
60
60
ENDCHAR
STARTCHAR idieresis
ENCODING 239
SWIDTH 235 0
DWIDTH 4 0
BBX 5 10 -1 0
BITMAP
D8
48
30
30
30
30
30
30
30
30
ENDCHAR
STARTCHAR eth
ENCODING 240
SWIDTH 581 0
DWIDTH 9 0
BBX 9 12 0 0
BITMAP
0C00
3F80
3F80
0F00
3F00
7780
6380
E180
E180
6380
7F00
3E00
ENDCHAR
STARTCHAR ntilde
ENCODING 241
SWIDTH 562 0
DWIDTH 9 0
BBX 7 12 1 0
BITMAP
74
7C
68
10
FC
FE
C6
C6
C6
C6
C6
C6
ENDCHAR
STARTCHAR ograve
ENCODING 242
SWIDTH 579 0
DWIDTH 9 0
BBX 9 12 0 0
BITMAP
1000
3800
0800
1C00
3F00
7700
6380
E180
E180
6380
7F00
3E00
ENDCHAR
STARTCHAR oacute
ENCODING 243
SWIDTH 579 0
DWIDTH 9 0
BBX 9 12 0 0
BITMAP
0600
0E00
0C00
1C00
3F00
7700
6380
E180
E180
6380
7F00
3E00
ENDCHAR
STARTCHAR ocircumflex
ENCODING 244
SWIDTH 579 0
DWIDTH 9 0
BBX 9 12 0 0
BITMAP
0800
1C00
1400
1C00
3F00
7700
6380
E180
E180
6380
7F00
3E00
ENDCHAR
STARTCHAR otilde
ENCODING 245
SWIDTH 579 0
DWIDTH 9 0
BBX 9 12 0 0
BITMAP
3A00
3E00
3400
1C00
3F00
7700
6380
E180
E180
6380
7F00
3E00
ENDCHAR
STARTCHAR odieresis
ENCODING 246
SWIDTH 579 0
DWIDTH 9 0
BBX 9 11 0 0
BITMAP
3600
0000
1C00
3F00
7700
6380
E180
E180
6380
7F00
3E00
ENDCHAR
STARTCHAR divide
ENCODING 247
SWIDTH 494 0
DWIDTH 8 0
BBX 6 7 1 2
BITMAP
30
30
FC
FC
00
30
30
ENDCHAR
STARTCHAR oslash
ENCODING 248
SWIDTH 579 0
DWIDTH 9 0
BBX 9 9 0 0
BITMAP
1C00
3F00
7700
6780
ED80
F980
7380
7F00
7E00
ENDCHAR
STARTCHAR ugrave
ENCODING 249
SWIDTH 562 0
DWIDTH 9 0
BBX 7 12 1 0
BITMAP
60
70
30
00
C6
C6
C6
C6
C6
C6
FE
7A
ENDCHAR
STARTCHAR uacute
ENCODING 250
SWIDTH 562 0
DWIDTH 9 0
BBX 7 12 1 0
BITMAP
08
1C
18
00
C6
C6
C6
C6
C6
C6
FE
7A
ENDCHAR
STARTCHAR ucircumflex
ENCODING 251
SWIDTH 562 0
DWIDTH 9 0
BBX 7 12 1 0
BITMAP
10
38
28
00
C6
C6
C6
C6
C6
C6
FE
7A
ENDCHAR
STARTCHAR udieresis
ENCODING 252
SWIDTH 562 0
DWIDTH 9 0
BBX 7 11 1 0
BITMAP
6C
00
00
C6
C6
C6
C6
C6
C6
FE
7A
ENDCHAR
STARTCHAR yacute
ENCODING 253
SWIDTH 562 0
DWIDTH 9 0
BBX 7 15 1 -3
BITMAP
08
1C
10
00
C6
C6
C6
C6
C6
C6
FE
7E
0E
3C
38
ENDCHAR
STARTCHAR thorn
ENCODING 254
SWIDTH 608 0
DWIDTH 10 0
BBX 8 15 1 -3
BITMAP
C0
C0
C0
D8
FE
FF
C3
C3
C3
E7
FF
FE
C0
C0
C0
ENDCHAR
STARTCHAR ydieresis
ENCODING 255
SWIDTH 562 0
DWIDTH 9 0
BBX 7 14 1 -3
BITMAP
6C
00
00
C6
C6
C6
C6
C6
C6
FE
7E
0E
3C
38
ENDCHAR
STARTCHAR Amacron
ENCODING 256
SWIDTH 673 0
DWIDTH 11 0
BBX 9 13 1 0
BITMAP
3C00
0000
3E00
7F00
E380
C380
C180
C180
C180
FF80
FF80
C180
C180
ENDCHAR
STARTCHAR amacron
ENCODING 257
SWIDTH 607 0
DWIDTH 10 0
BBX 9 11 0 0
BITMAP
1E00
0000
1C00
3E80
7780
6380
E180
E180
6380
7F80
3E80
ENDCHAR
STARTCHAR Abreve
ENCODING 258
SWIDTH 673 0
DWIDTH 11 0
BBX 9 14 1 0
BITMAP
1400
1C00
0000
3E00
7F00
E380
C380
C180
C180
C180
FF80
FF80
C180
C180
ENDCHAR
STARTCHAR abreve
ENCODING 259
SWIDTH 607 0
DWIDTH 10 0
BBX 9 12 0 0
BITMAP
1400
1C00
0000
1C00
3E80
7780
6380
E180
E180
6380
7F80
3E80
ENDCHAR
STARTCHAR Aogonek
ENCODING 260
SWIDTH 673 0
DWIDTH 11 0
BBX 9 14 1 -3
BITMAP
3E00
7F00
E380
C380
C180
C180
C180
FF80
FF80
C180
C180
0300
0380
0180
ENDCHAR
STARTCHAR aogonek
ENCODING 261
SWIDTH 607 0
DWIDTH 10 0
BBX 10 12 0 -3
BITMAP
1C00
3E80
7780
6380
E180
E180
6380
7F80
3E80
0180
01C0
01C0
ENDCHAR
STARTCHAR Cacute
ENCODING 262
SWIDTH 640 0
DWIDTH 10 0
BBX 10 15 0 0
BITMAP
0100
0380
0600
0000
1F80
3FC0
7080
6000
6000
E000
6000
6000
7080
3FC0
1F80
ENDCHAR
STARTCHAR cacute
ENCODING 263
SWIDTH 521 0
DWIDTH 8 0
BBX 8 12 0 0
BITMAP
04
0E
08
1C
3F
77
62
E0
E0
62
7F
3E
ENDCHAR
STARTCHAR Ccircumflex
ENCODING 264
SWIDTH 640 0
DWIDTH 10 0
BBX 10 15 0 0
BITMAP
0600
0F00
0900
0000
1F80
3FC0
7080
6000
6000
E000
6000
6000
7080
3FC0
1F80
ENDCHAR
STARTCHAR ccircumflex
ENCODING 265
SWIDTH 521 0
DWIDTH 8 0
BBX 8 12 0 0
BITMAP
08
1C
14
1C
3F
77
62
E0
E0
62
7F
3E
ENDCHAR
STARTCHAR Cdotaccent
ENCODING 266
SWIDTH 640 0
DWIDTH 10 0
BBX 10 14 0 0
BITMAP
0200
0600
0000
1F80
3FC0
7080
6000
6000
E000
6000
6000
7080
3FC0
1F80
ENDCHAR
STARTCHAR cdotaccent
ENCODING 267
SWIDTH 521 0
DWIDTH 8 0
BBX 8 12 0 0
BITMAP
08
0C
00
1C
3F
77
62
E0
E0
62
7F
3E
ENDCHAR
STARTCHAR Ccaron
ENCODING 268
SWIDTH 640 0
DWIDTH 10 0
BBX 10 15 0 0
BITMAP
0F00
0700
0000
0000
1F80
3FC0
7080
6000
6000
E000
6000
6000
7080
3FC0
1F80
ENDCHAR
STARTCHAR ccaron
ENCODING 269
SWIDTH 521 0
DWIDTH 8 0
BBX 8 12 0 0
BITMAP
16
1C
08
1C
3F
77
62
E0
E0
62
7F
3E
ENDCHAR
STARTCHAR Dcaron
ENCODING 270
SWIDTH 653 0
DWIDTH 10 0
BBX 9 15 1 0
BITMAP
3400
1C00
0800
0000
FC00
FE00
C700
C380
C180
C180
C180
C380
C700
FE00
FC00
ENDCHAR
STARTCHAR dcaron
ENCODING 271
SWIDTH 740 0
DWIDTH 12 0
BBX 12 12 0 0
BITMAP
0180
01B0
01B0
1DA0
3F80
7780
6380
E180
E180
6380
7F80
3E80
ENDCHAR
STARTCHAR Dcroat
ENCODING 272
SWIDTH 672 0
DWIDTH 11 0
BBX 10 11 0 0
BITMAP
7E00
7F80
73C0
71C0
F8C0
F8C0
70C0
71C0
7380
7F80
7E00
ENDCHAR
STARTCHAR dcroat
ENCODING 273
SWIDTH 606 0
DWIDTH 10 0
BBX 10 12 0 0
BITMAP
0180
03C0
03C0
1D80
3F80
7780
6380
E180
E180
6380
7F80
3E80
ENDCHAR
STARTCHAR Emacron
ENCODING 274
SWIDTH 578 0
DWIDTH 9 0
BBX 8 13 1 0
BITMAP
3C
00
FF
FF
C0
C0
FC
FC
FC
C0
C0
FF
FF
ENDCHAR
STARTCHAR emacron
ENCODING 275
SWIDTH 524 0
DWIDTH 8 0
BBX 8 11 0 0
BITMAP
1E
00
1C
3F
77
66
EC
F8
7A
7F
3E
ENDCHAR
STARTCHAR Ebreve
ENCODING 276
SWIDTH 578 0
DWIDTH 9 0
BBX 8 14 1 0
BITMAP
3C
38
00
FF
FF
C0
C0
FC
FC
FC
C0
C0
FF
FF
ENDCHAR
STARTCHAR ebreve
ENCODING 277
SWIDTH 524 0
DWIDTH 8 0
BBX 8 12 0 0
BITMAP
14
1C
00
1C
3F
77
66
EC
F8
7A
7F
3E
ENDCHAR
STARTCHAR Edotaccent
ENCODING 278
SWIDTH 578 0
DWIDTH 9 0
BBX 8 13 1 0
BITMAP
18
00
FF
FF
C0
C0
FC
FC
FC
C0
C0
FF
FF
ENDCHAR
STARTCHAR edotaccent
ENCODING 279
SWIDTH 524 0
DWIDTH 8 0
BBX 8 12 0 0
BITMAP
08
0C
00
1C
3F
77
66
EC
F8
7A
7F
3E
ENDCHAR
STARTCHAR Eogonek
ENCODING 280
SWIDTH 578 0
DWIDTH 9 0
BBX 8 14 1 -3
BITMAP
FF
FF
C0
C0
FC
FC
FC
C0
C0
FF
FF
04
0E
06
ENDCHAR
STARTCHAR eogonek
ENCODING 281
SWIDTH 524 0
DWIDTH 8 0
BBX 8 12 0 -3
BITMAP
1C
3F
77
66
EC
F8
7A
7F
3E
04
0E
06
ENDCHAR
STARTCHAR Ecaron
ENCODING 282
SWIDTH 578 0
DWIDTH 9 0
BBX 8 15 1 0
BITMAP
3C
18
00
00
FF
FF
C0
C0
FC
FC
FC
C0
C0
FF
FF
ENDCHAR
STARTCHAR ecaron
ENCODING 283
SWIDTH 524 0
DWIDTH 8 0
BBX 8 12 0 0
BITMAP
14
1C
08
1C
3F
77
66
EC
F8
7A
7F
3E
ENDCHAR
STARTCHAR Gcircumflex
ENCODING 284
SWIDTH 665 0
DWIDTH 11 0
BBX 10 15 0 0
BITMAP
0600
0F00
0900
0000
1F80
3FC0
7080
6000
6000
E0C0
60C0
60C0
70C0
3FC0
1F80
ENDCHAR
STARTCHAR gcircumflex
ENCODING 285
SWIDTH 607 0
DWIDTH 10 0
BBX 9 15 0 -3
BITMAP
0800
1C00
1400
1C00
3E80
7780
6380
E180
E180
6380
7F80
3F80
0380
0F00
0E00
ENDCHAR
STARTCHAR Gbreve
ENCODING 286
SWIDTH 665 0
DWIDTH 11 0
BBX 10 14 0 0
BITMAP
0F00
0F00
0000
1F80
3FC0
7080
6000
6000
E0C0
60C0
60C0
70C0
3FC0
1F80
ENDCHAR
STARTCHAR gbreve
ENCODING 287
SWIDTH 607 0
DWIDTH 10 0
BBX 9 15 0 -3
BITMAP
1400
1C00
0000
1C00
3E80
7780
6380
E180
E180
6380
7F80
3F80
0380
0F00
0E00
ENDCHAR
STARTCHAR Gdotaccent
ENCODING 288
SWIDTH 665 0
DWIDTH 11 0
BBX 10 13 0 0
BITMAP
0600
0000
1F80
3FC0
7080
6000
6000
E0C0
60C0
60C0
70C0
3FC0
1F80
ENDCHAR
STARTCHAR gdotaccent
ENCODING 289
SWIDTH 607 0
DWIDTH 10 0
BBX 9 15 0 -3
BITMAP
0800
0C00
0000
1C00
3E80
7780
6380
E180
E180
6380
7F80
3F80
0380
0F00
0E00
ENDCHAR
STARTCHAR Gcommaaccent
ENCODING 290
SWIDTH 665 0
DWIDTH 11 0
BBX 10 15 0 -4
BITMAP
1F80
3FC0
7080
6000
6000
E0C0
60C0
60C0
70C0
3FC0
1F80
0000
0600
0600
0200
ENDCHAR
STARTCHAR gcommaaccent
ENCODING 291
SWIDTH 607 0
DWIDTH 10 0
BBX 9 16 0 -3
BITMAP
0800
0800
1C00
0000
1C00
3E80
7780
6380
E180
E180
6380
7F80
3F80
0380
0F00
0E00
ENDCHAR
STARTCHAR Hcircumflex
ENCODING 292
SWIDTH 689 0
DWIDTH 11 0
BBX 9 14 1 0
BITMAP
0800
1C00
1400
C180
C180
C180
C180
FF80
FF80
FF80
C180
C180
C180
C180
ENDCHAR
STARTCHAR hcircumflex
ENCODING 293
SWIDTH 562 0
DWIDTH 9 0
BBX 7 12 1 0
BITMAP
C8
DC
D4
D0
FC
FE
C6
C6
C6
C6
C6
C6
ENDCHAR
STARTCHAR Hbar
ENCODING 294
SWIDTH 689 0
DWIDTH 11 0
BBX 11 11 0 0
BITMAP
60C0
FFE0
FFE0
60C0
7FC0
7FC0
7FC0
60C0
60C0
60C0
60C0
ENDCHAR
STARTCHAR hbar
ENCODING 295
SWIDTH 562 0
DWIDTH 9 0
BBX 8 12 0 0
BITMAP
60
F0
F0
68
7E
7F
63
63
63
63
63
63
ENDCHAR
STARTCHAR Itilde
ENCODING 296
SWIDTH 270 0
DWIDTH 4 0
BBX 5 14 0 0
BITMAP
D8
F8
90
60
60
60
60
60
60
60
60
60
60
60
ENDCHAR
STARTCHAR itilde
ENCODING 297
SWIDTH 235 0
DWIDTH 4 0
BBX 5 12 -1 0
BITMAP
68
F8
58
00
30
30
30
30
30
30
30
30
ENDCHAR
STARTCHAR Imacron
ENCODING 298
SWIDTH 270 0
DWIDTH 4 0
BBX 4 13 0 0
BITMAP
F0
00
60
60
60
60
60
60
60
60
60
60
60
ENDCHAR
STARTCHAR imacron
ENCODING 299
SWIDTH 235 0
DWIDTH 4 0
BBX 4 10 0 0
BITMAP
F0
00
60
60
60
60
60
60
60
60
ENDCHAR
STARTCHAR Ibreve
ENCODING 300
SWIDTH 270 0
DWIDTH 4 0
BBX 4 14 0 0
BITMAP
D0
70
00
60
60
60
60
60
60
60
60
60
60
60
ENDCHAR
STARTCHAR ibreve
ENCODING 301
SWIDTH 235 0
DWIDTH 4 0
BBX 4 11 0 0
BITMAP
F0
F0
00
60
60
60
60
60
60
60
60
ENDCHAR
STARTCHAR Iogonek
ENCODING 302
SWIDTH 270 0
DWIDTH 4 0
BBX 2 14 1 -3
BITMAP
C0
C0
C0
C0
C0
C0
C0
C0
C0
C0
C0
80
C0
C0
ENDCHAR
STARTCHAR iogonek
ENCODING 303
SWIDTH 235 0
DWIDTH 4 0
BBX 3 15 0 -3
BITMAP
60
E0
60
00
60
60
60
60
60
60
60
60
40
E0
60
ENDCHAR
STARTCHAR Idotaccent
ENCODING 304
SWIDTH 270 0
DWIDTH 4 0
BBX 2 14 1 0
BITMAP
40
C0
00
C0
C0
C0
C0
C0
C0
C0
C0
C0
C0
C0
ENDCHAR
STARTCHAR dotlessi
ENCODING 305
SWIDTH 235 0
DWIDTH 4 0
BBX 2 8 1 0
BITMAP
C0
C0
C0
C0
C0
C0
C0
C0
ENDCHAR
STARTCHAR IJ
ENCODING 306
SWIDTH 687 0
DWIDTH 11 0
BBX 9 11 1 0
BITMAP
C180
C180
C180
C180
C180
C180
C180
C180
D380
DF00
DE00
ENDCHAR
STARTCHAR ij
ENCODING 307
SWIDTH 474 0
DWIDTH 8 0
BBX 7 15 0 -3
BITMAP
66
EE
66
00
66
66
66
66
66
66
66
66
0C
7C
78
ENDCHAR
STARTCHAR Jcircumflex
ENCODING 308
SWIDTH 416 0
DWIDTH 7 0
BBX 6 15 0 0
BITMAP
08
1C
14
00
0C
0C
0C
0C
0C
0C
0C
1C
38
F8
E0
ENDCHAR
STARTCHAR jcircumflex
ENCODING 309
SWIDTH 237 0
DWIDTH 4 0
BBX 6 15 -2 -3
BITMAP
18
3C
24
00
18
18
18
18
18
18
18
18
38
F0
E0
ENDCHAR
STARTCHAR Kcommaaccent
ENCODING 310
SWIDTH 625 0
DWIDTH 10 0
BBX 9 15 1 -4
BITMAP
C300
C700
CE00
CC00
D800
FC00
FE00
E600
C700
C300
C380
0000
1800
1800
0800
ENDCHAR
STARTCHAR kcommaaccent
ENCODING 311
SWIDTH 539 0
DWIDTH 9 0
BBX 7 16 1 -4
BITMAP
C0
C0
C0
C0
CE
CC
D8
F8
FC
EC
CE
C6
00
30
30
10
ENDCHAR
STARTCHAR kgreenlandic
ENCODING 312
SWIDTH 539 0
DWIDTH 9 0
BBX 7 8 1 0
BITMAP
CE
CC
D8
F8
FC
EC
CE
C6
ENDCHAR
STARTCHAR Lacute
ENCODING 313
SWIDTH 562 0
DWIDTH 9 0
BBX 8 14 1 0
BITMAP
08
1C
10
C0
C0
C0
C0
C0
C0
C0
C0
C0
FF
FF
ENDCHAR
STARTCHAR lacute
ENCODING 314
SWIDTH 235 0
DWIDTH 4 0
BBX 4 15 1 0
BITMAP
20
70
40
C0
C0
C0
C0
C0
C0
C0
C0
C0
C0
C0
C0
ENDCHAR
STARTCHAR Lcommaaccent
ENCODING 315
SWIDTH 562 0
DWIDTH 9 0
BBX 8 15 1 -4
BITMAP
C0
C0
C0
C0
C0
C0
C0
C0
C0
FF
FF
00
38
18
10
ENDCHAR
STARTCHAR lcommaaccent
ENCODING 316
SWIDTH 235 0
DWIDTH 4 0
BBX 2 16 1 -4
BITMAP
C0
C0
C0
C0
C0
C0
C0
C0
C0
C0
C0
C0
00
C0
C0
C0
ENDCHAR
STARTCHAR Lcaron
ENCODING 317
SWIDTH 562 0
DWIDTH 9 0
BBX 8 11 1 0
BITMAP
D8
D8
C8
C0
C0
C0
C0
C0
C0
FF
FF
ENDCHAR
STARTCHAR lcaron
ENCODING 318
SWIDTH 369 0
DWIDTH 6 0
BBX 5 12 1 0
BITMAP
C0
D8
D8
D0
C0
C0
C0
C0
C0
C0
C0
C0
ENDCHAR
STARTCHAR Ldot
ENCODING 319
SWIDTH 745 0
DWIDTH 12 0
BBX 10 11 1 0
BITMAP
C000
C000
C000
C000
C0C0
C0C0
C0C0
C000
C000
FF00
FF00
ENDCHAR
STARTCHAR ldotaccent
ENCODING 320
SWIDTH 463 0
DWIDTH 7 0
BBX 6 12 1 0
BITMAP
C0
C0
C0
C0
C0
D8
DC
C8
C0
C0
C0
C0
ENDCHAR
STARTCHAR Lslash
ENCODING 321
SWIDTH 585 0
DWIDTH 9 0
BBX 9 11 0 0
BITMAP
7000
7000
7000
7800
7800
F000
F000
7000
7000
7F80
7F80
ENDCHAR
STARTCHAR lslash
ENCODING 322
SWIDTH 319 0
DWIDTH 5 0
BBX 5 12 0 0
BITMAP
70
70
70
70
78
78
F0
F0
F0
70
70
70
ENDCHAR
STARTCHAR Nacute
ENCODING 323
SWIDTH 689 0
DWIDTH 11 0
BBX 9 15 1 0
BITMAP
0400
0E00
0C00
0000
E180
E180
F180
F980
D980
DD80
CD80
C780
C780
C380
C380
ENDCHAR
STARTCHAR nacute
ENCODING 324
SWIDTH 562 0
DWIDTH 9 0
BBX 7 12 1 0
BITMAP
04
1C
18
10
FC
FE
C6
C6
C6
C6
C6
C6
ENDCHAR
STARTCHAR Ncommaaccent
ENCODING 325
SWIDTH 689 0
DWIDTH 11 0
BBX 9 15 1 -4
BITMAP
E180
E180
F180
F980
D980
DD80
CD80
C780
C780
C380
C380
0000
0C00
0C00
0800
ENDCHAR
STARTCHAR ncommaaccent
ENCODING 326
SWIDTH 562 0
DWIDTH 9 0
BBX 7 13 1 -4
BITMAP
10
FC
FE
C6
C6
C6
C6
C6
C6
00
38
18
10
ENDCHAR
STARTCHAR Ncaron
ENCODING 327
SWIDTH 689 0
DWIDTH 11 0
BBX 9 14 1 0
BITMAP
1400
1C00
0800
E180
E180
F180
F980
D980
DD80
CD80
C780
C780
C380
C380
ENDCHAR
STARTCHAR ncaron
ENCODING 328
SWIDTH 562 0
DWIDTH 9 0
BBX 7 12 1 0
BITMAP
28
38
10
10
FC
FE
C6
C6
C6
C6
C6
C6
ENDCHAR
STARTCHAR napostrophe
ENCODING 329
SWIDTH 694 0
DWIDTH 11 0
BBX 10 11 0 0
BITMAP
C000
C000
4200
1F80
1FC0
18C0
18C0
18C0
18C0
18C0
18C0
ENDCHAR
STARTCHAR Eng
ENCODING 330
SWIDTH 689 0
DWIDTH 11 0
BBX 9 14 1 -3
BITMAP
E180
E180
F180
F980
D980
DD80
CD80
C780
C780
C380
C380
0380
1F00
1E00
ENDCHAR
STARTCHAR eng
ENCODING 331
SWIDTH 562 0
DWIDTH 9 0
BBX 7 12 1 -3
BITMAP
10
FC
FE
C6
C6
C6
C6
C6
C6
0E
3C
38
ENDCHAR
STARTCHAR Omacron
ENCODING 332
SWIDTH 777 0
DWIDTH 12 0
BBX 12 13 0 0
BITMAP
0F00
0000
1F80
3FC0
70E0
6070
6030
E030
6030
6070
70E0
3FC0
1F80
ENDCHAR
STARTCHAR omacron
ENCODING 333
SWIDTH 579 0
DWIDTH 9 0
BBX 9 11 0 0
BITMAP
1E00
0000
1C00
3F00
7700
6380
E180
E180
6380
7F00
3E00
ENDCHAR
STARTCHAR Obreve
ENCODING 334
SWIDTH 777 0
DWIDTH 12 0
BBX 12 14 0 0
BITMAP
0500
0700
0000
1F80
3FC0
70E0
6070
6030
E030
6030
6070
70E0
3FC0
1F80
ENDCHAR
STARTCHAR obreve
ENCODING 335
SWIDTH 579 0
DWIDTH 9 0
BBX 9 12 0 0
BITMAP
1400
1C00
0000
1C00
3F00
7700
6380
E180
E180
6380
7F00
3E00
ENDCHAR
STARTCHAR Ohungarumlaut
ENCODING 336
SWIDTH 777 0
DWIDTH 12 0
BBX 12 16 0 0
BITMAP
0480
06C0
0D80
0100
0000
1F80
3FC0
70E0
6070
6030
E030
6030
6070
70E0
3FC0
1F80
ENDCHAR
STARTCHAR ohungarumlaut
ENCODING 337
SWIDTH 579 0
DWIDTH 9 0
BBX 9 13 0 0
BITMAP
0800
1F00
3F00
0200
1C00
3F00
7700
6380
E180
E180
6380
7F00
3E00
ENDCHAR
STARTCHAR OE
ENCODING 338
SWIDTH 1125 0
DWIDTH 18 0
BBX 17 11 0 0
BITMAP
1FBF80
3FFF80
70F000
607000
603F00
E03F00
603F00
607000
70F000
3FFF80
1FBF80
ENDCHAR
STARTCHAR oe
ENCODING 339
SWIDTH 924 0
DWIDTH 15 0
BBX 14 9 0 0
BITMAP
1C30
3FFC
77FC
6398
E1B8
E1F0
63EC
7FFC
3E78
ENDCHAR
STARTCHAR Racute
ENCODING 340
SWIDTH 651 0
DWIDTH 10 0
BBX 9 15 1 0
BITMAP
0400
0E00
0800
0000
FE00
FF00
C380
C180
C180
C380
C700
FF00
FE00
C700
C300
ENDCHAR
STARTCHAR racute
ENCODING 341
SWIDTH 414 0
DWIDTH 7 0
BBX 5 12 1 0
BITMAP
10
38
30
00
F8
F8
C0
C0
C0
C0
C0
C0
ENDCHAR
STARTCHAR Rcommaaccent
ENCODING 342
SWIDTH 651 0
DWIDTH 10 0
BBX 9 15 1 -4
BITMAP
FE00
FF00
C380
C180
C180
C380
C700
FF00
FE00
C700
C300
0000
1800
1800
0800
ENDCHAR
STARTCHAR rcommaaccent
ENCODING 343
SWIDTH 414 0
DWIDTH 7 0
BBX 5 12 1 -4
BITMAP
F8
F8
C0
C0
C0
C0
C0
C0
00
C0
C0
80
ENDCHAR
STARTCHAR Rcaron
ENCODING 344
SWIDTH 651 0
DWIDTH 10 0
BBX 9 15 1 0
BITMAP
3400
1C00
0800
0000
FE00
FF00
C380
C180
C180
C380
C700
FF00
FE00
C700
C300
ENDCHAR
STARTCHAR rcaron
ENCODING 345
SWIDTH 414 0
DWIDTH 7 0
BBX 5 12 1 0
BITMAP
D0
70
20
00
F8
F8
C0
C0
C0
C0
C0
C0
ENDCHAR
STARTCHAR Sacute
ENCODING 346
SWIDTH 610 0
DWIDTH 10 0
BBX 9 15 0 0
BITMAP
0200
0700
0400
0000
3F80
7F80
E000
E000
7E00
7F80
1F80
0180
0180
7F80
7F00
ENDCHAR
STARTCHAR sacute
ENCODING 347
SWIDTH 523 0
DWIDTH 8 0
BBX 7 12 1 0
BITMAP
08
1C
18
00
FE
FE
C0
FC
7E
06
FE
FC
ENDCHAR
STARTCHAR Scircumflex
ENCODING 348
SWIDTH 610 0
DWIDTH 10 0
BBX 9 15 0 0
BITMAP
0C00
1E00
1200
0000
3F80
7F80
E000
E000
7E00
7F80
1F80
0180
0180
7F80
7F00
ENDCHAR
STARTCHAR scircumflex
ENCODING 349
SWIDTH 523 0
DWIDTH 8 0
BBX 7 12 1 0
BITMAP
30
78
08
00
FE
FE
C0
FC
7E
06
FE
FC
ENDCHAR
STARTCHAR Scedilla
ENCODING 350
SWIDTH 610 0
DWIDTH 10 0
BBX 9 15 0 -4
BITMAP
3F80
7F80
E000
E000
7E00
7F80
1F80
0180
0180
7F80
7F00
0800
0400
1C00
0800
ENDCHAR
STARTCHAR scedilla
ENCODING 351
SWIDTH 523 0
DWIDTH 8 0
BBX 7 12 1 -4
BITMAP
FE
FE
C0
FC
7E
06
FE
FC
10
38
38
30
ENDCHAR
STARTCHAR Scaron
ENCODING 352
SWIDTH 610 0
DWIDTH 10 0
BBX 9 15 0 0
BITMAP
1600
1C00
0000
0000
3F80
7F80
E000
E000
7E00
7F80
1F80
0180
0180
7F80
7F00
ENDCHAR
STARTCHAR scaron
ENCODING 353
SWIDTH 523 0
DWIDTH 8 0
BBX 7 12 1 0
BITMAP
28
38
10
00
FE
FE
C0
FC
7E
06
FE
FC
ENDCHAR
STARTCHAR Tcommaaccent
ENCODING 354
SWIDTH 578 0
DWIDTH 9 0
BBX 9 15 0 -4
BITMAP
FF80
FF80
0C00
0C00
0C00
0C00
0C00
0C00
0C00
0C00
0C00
0000
0C00
0C00
0800
ENDCHAR
STARTCHAR tcommaaccent
ENCODING 355
SWIDTH 437 0
DWIDTH 7 0
BBX 7 16 0 -4
BITMAP
60
60
60
60
FE
FE
60
60
60
70
3E
1E
00
38
18
10
ENDCHAR
STARTCHAR Tcaron
ENCODING 356
SWIDTH 578 0
DWIDTH 9 0
BBX 9 15 0 0
BITMAP
1400
1C00
0800
0000
FF80
FF80
0C00
0C00
0C00
0C00
0C00
0C00
0C00
0C00
0C00
ENDCHAR
STARTCHAR tcaron
ENCODING 357
SWIDTH 570 0
DWIDTH 9 0
BBX 9 12 0 0
BITMAP
6000
6180
6180
6080
FE00
FE00
6000
6000
6000
7000
3E00
1E00
ENDCHAR
STARTCHAR Tbar
ENCODING 358
SWIDTH 578 0
DWIDTH 9 0
BBX 9 11 0 0
BITMAP
FF80
FF80
0C00
0C00
0C00
3E00
3E00
0C00
0C00
0C00
0C00
ENDCHAR
STARTCHAR tbar
ENCODING 359
SWIDTH 437 0
DWIDTH 7 0
BBX 7 12 0 0
BITMAP
60
60
60
60
FE
FE
60
F8
F8
70
3E
1E
ENDCHAR
STARTCHAR Utilde
ENCODING 360
SWIDTH 673 0
DWIDTH 11 0
BBX 9 14 1 0
BITMAP
3E00
3E00
3400
C180
C180
C180
C180
C180
C180
C180
C380
E700
7F00
3C00
ENDCHAR
STARTCHAR utilde
ENCODING 361
SWIDTH 562 0
DWIDTH 9 0
BBX 7 12 1 0
BITMAP
74
7C
68
00
C6
C6
C6
C6
C6
C6
FE
7A
ENDCHAR
STARTCHAR Umacron
ENCODING 362
SWIDTH 673 0
DWIDTH 11 0
BBX 9 13 1 0
BITMAP
3C00
0000
C180
C180
C180
C180
C180
C180
C180
C380
E700
7F00
3C00
ENDCHAR
STARTCHAR umacron
ENCODING 363
SWIDTH 562 0
DWIDTH 9 0
BBX 7 10 1 0
BITMAP
38
00
C6
C6
C6
C6
C6
C6
FE
7A
ENDCHAR
STARTCHAR Ubreve
ENCODING 364
SWIDTH 673 0
DWIDTH 11 0
BBX 9 14 1 0
BITMAP
1400
1C00
0000
C180
C180
C180
C180
C180
C180
C180
C380
E700
7F00
3C00
ENDCHAR
STARTCHAR ubreve
ENCODING 365
SWIDTH 562 0
DWIDTH 9 0
BBX 7 11 1 0
BITMAP
28
38
00
C6
C6
C6
C6
C6
C6
FE
7A
ENDCHAR
STARTCHAR Uring
ENCODING 366
SWIDTH 673 0
DWIDTH 11 0
BBX 9 14 1 0
BITMAP
1C00
1400
0800
C180
C180
C180
C180
C180
C180
C180
C380
E700
7F00
3C00
ENDCHAR
STARTCHAR uring
ENCODING 367
SWIDTH 562 0
DWIDTH 9 0
BBX 7 12 1 0
BITMAP
38
28
10
00
C6
C6
C6
C6
C6
C6
FE
7A
ENDCHAR
STARTCHAR Uhungarumlaut
ENCODING 368
SWIDTH 673 0
DWIDTH 11 0
BBX 9 15 1 0
BITMAP
0800
1B00
3600
0400
C180
C180
C180
C180
C180
C180
C180
C380
E700
7F00
3C00
ENDCHAR
STARTCHAR uhungarumlaut
ENCODING 369
SWIDTH 562 0
DWIDTH 9 0
BBX 7 13 1 0
BITMAP
10
3E
6E
00
00
C6
C6
C6
C6
C6
C6
FE
7A
ENDCHAR
STARTCHAR Uogonek
ENCODING 370
SWIDTH 673 0
DWIDTH 11 0
BBX 9 14 1 -3
BITMAP
C180
C180
C180
C180
C180
C180
C180
C380
E700
7F00
3C00
1000
1800
1800
ENDCHAR
STARTCHAR uogonek
ENCODING 371
SWIDTH 562 0
DWIDTH 9 0
BBX 8 11 1 -3
BITMAP
C6
C6
C6
C6
C6
C6
FE
7A
06
07
03
ENDCHAR
STARTCHAR Wcircumflex
ENCODING 372
SWIDTH 819 0
DWIDTH 13 0
BBX 11 15 1 0
BITMAP
0400
0E00
0A00
0000
CE60
CE60
CE60
CE60
CE60
CE60
CE60
CE60
CE60
FFE0
7BC0
ENDCHAR
STARTCHAR wcircumflex
ENCODING 373
SWIDTH 756 0
DWIDTH 12 0
BBX 10 12 1 0
BITMAP
0C00
1E00
0200
0000
CCC0
CCC0
CCC0
CCC0
CCC0
CCC0
FFC0
7F80
ENDCHAR
STARTCHAR Ycircumflex
ENCODING 374
SWIDTH 620 0
DWIDTH 10 0
BBX 9 14 0 0
BITMAP
0C00
1E00
1200
E180
E180
E180
E180
6180
7F80
3F00
0C00
0C00
0C00
0C00
ENDCHAR
STARTCHAR ycircumflex
ENCODING 375
SWIDTH 562 0
DWIDTH 9 0
BBX 7 15 1 -3
BITMAP
10
38
28
00
C6
C6
C6
C6
C6
C6
FE
7E
0E
3C
38
ENDCHAR
STARTCHAR Ydieresis
ENCODING 376
SWIDTH 620 0
DWIDTH 10 0
BBX 9 13 0 0
BITMAP
1E00
1200
E180
E180
E180
E180
6180
7F80
3F00
0C00
0C00
0C00
0C00
ENDCHAR
STARTCHAR Zacute
ENCODING 377
SWIDTH 586 0
DWIDTH 9 0
BBX 9 15 0 0
BITMAP
0200
0700
0C00
0000
FF80
FF00
0700
0E00
0E00
1C00
1800
3800
3000
7F80
7F80
ENDCHAR
STARTCHAR zacute
ENCODING 378
SWIDTH 481 0
DWIDTH 8 0
BBX 7 12 0 0
BITMAP
04
0E
08
00
FE
FC
1C
18
38
30
7E
7E
ENDCHAR
STARTCHAR Zdotaccent
ENCODING 379
SWIDTH 586 0
DWIDTH 9 0
BBX 9 14 0 0
BITMAP
0800
0C00
0000
FF80
FF00
0700
0E00
0E00
1C00
1800
3800
3000
7F80
7F80
ENDCHAR
STARTCHAR zdotaccent
ENCODING 380
SWIDTH 481 0
DWIDTH 8 0
BBX 7 11 0 0
BITMAP
10
18
00
FE
FC
1C
18
38
30
7E
7E
ENDCHAR
STARTCHAR Zcaron
ENCODING 381
SWIDTH 586 0
DWIDTH 9 0
BBX 9 15 0 0
BITMAP
1600
1C00
0800
0000
FF80
FF00
0700
0E00
0E00
1C00
1800
3800
3000
7F80
7F80
ENDCHAR
STARTCHAR zcaron
ENCODING 382
SWIDTH 481 0
DWIDTH 8 0
BBX 7 12 0 0
BITMAP
2C
38
00
00
FE
FC
1C
18
38
30
7E
7E
ENDCHAR
STARTCHAR AEacute
ENCODING 508
SWIDTH 988 0
DWIDTH 16 0
BBX 14 15 1 0
BITMAP
00C0
01C0
0180
0000
3FFC
7FFC
E180
C180
C1F8
C1F8
C1F8
FF80
FF80
C1FC
C1FC
ENDCHAR
STARTCHAR aeacute
ENCODING 509
SWIDTH 976 0
DWIDTH 16 0
BBX 15 12 0 0
BITMAP
0040
00E0
00C0
1C18
3EFE
77FE
63CC
E1D8
E1F8
63F6
7FFE
3EBC
ENDCHAR
STARTCHAR Oslashacute
ENCODING 510
SWIDTH 777 0
DWIDTH 12 0
BBX 12 15 0 0
BITMAP
0100
0380
0200
0000
1FE0
3FC0
71E0
61F0
6330
E630
6C30
6C70
78E0
3FC0
7F80
ENDCHAR
STARTCHAR oslashacute
ENCODING 511
SWIDTH 579 0
DWIDTH 9 0
BBX 9 12 0 0
BITMAP
0200
0E00
0C00
1C00
3F00
7700
6780
ED80
F980
7380
7F00
7E00
ENDCHAR
STARTCHAR dotlessj
ENCODING 567
SWIDTH 237 0
DWIDTH 4 0
BBX 5 11 -2 -3
BITMAP
18
18
18
18
18
18
18
18
38
F0
E0
ENDCHAR
STARTCHAR circumflex
ENCODING 710
SWIDTH 267 0
DWIDTH 4 0
BBX 4 3 0 8
BITMAP
60
F0
10
ENDCHAR
STARTCHAR caron
ENCODING 711
SWIDTH 267 0
DWIDTH 4 0
BBX 4 3 0 8
BITMAP
D0
70
20
ENDCHAR
STARTCHAR breve
ENCODING 728
SWIDTH 220 0
DWIDTH 4 0
BBX 3 2 0 9
BITMAP
A0
E0
ENDCHAR
STARTCHAR dotaccent
ENCODING 729
SWIDTH 125 0
DWIDTH 2 0
BBX 2 1 0 9
BITMAP
C0
ENDCHAR
STARTCHAR ring
ENCODING 730
SWIDTH 192 0
DWIDTH 3 0
BBX 3 3 0 8
BITMAP
E0
A0
40
ENDCHAR
STARTCHAR ogonek
ENCODING 731
SWIDTH 212 0
DWIDTH 3 0
BBX 3 3 0 -3
BITMAP
C0
E0
60
ENDCHAR
STARTCHAR tilde
ENCODING 732
SWIDTH 321 0
DWIDTH 5 0
BBX 5 3 0 8
BITMAP
E8
F8
D0
ENDCHAR
STARTCHAR hungarumlaut
ENCODING 733
SWIDTH 384 0
DWIDTH 6 0
BBX 6 3 0 8
BITMAP
6C
D8
10
ENDCHAR
STARTCHAR uni0312
ENCODING 786
SWIDTH 192 0
DWIDTH 3 0
BBX 3 3 0 9
BITMAP
40
40
E0
ENDCHAR
STARTCHAR uni0315
ENCODING 789
SWIDTH 132 0
DWIDTH 2 0
BBX 2 3 0 8
BITMAP
C0
C0
40
ENDCHAR
STARTCHAR uni0326
ENCODING 806
SWIDTH 193 0
DWIDTH 3 0
BBX 2 3 1 -4
BITMAP
C0
C0
80
ENDCHAR
STARTCHAR pi
ENCODING 960
SWIDTH 555 0
DWIDTH 9 0
BBX 9 8 0 0
BITMAP
FF80
FF80
3600
3600
3600
3600
3600
3600
ENDCHAR
STARTCHAR Wgrave
ENCODING 7808
SWIDTH 819 0
DWIDTH 13 0
BBX 11 15 1 0
BITMAP
1800
1C00
0C00
0000
CE60
CE60
CE60
CE60
CE60
CE60
CE60
CE60
CE60
FFE0
7BC0
ENDCHAR
STARTCHAR wgrave
ENCODING 7809
SWIDTH 756 0
DWIDTH 12 0
BBX 10 12 1 0
BITMAP
1000
3800
0800
0000
CCC0
CCC0
CCC0
CCC0
CCC0
CCC0
FFC0
7F80
ENDCHAR
STARTCHAR Wacute
ENCODING 7810
SWIDTH 819 0
DWIDTH 13 0
BBX 11 15 1 0
BITMAP
0300
0700
0600
0000
CE60
CE60
CE60
CE60
CE60
CE60
CE60
CE60
CE60
FFE0
7BC0
ENDCHAR
STARTCHAR wacute
ENCODING 7811
SWIDTH 756 0
DWIDTH 12 0
BBX 10 12 1 0
BITMAP
0200
0700
0400
0000
CCC0
CCC0
CCC0
CCC0
CCC0
CCC0
FFC0
7F80
ENDCHAR
STARTCHAR Wdieresis
ENCODING 7812
SWIDTH 819 0
DWIDTH 13 0
BBX 11 13 1 0
BITMAP
1B00
0000
CE60
CE60
CE60
CE60
CE60
CE60
CE60
CE60
CE60
FFE0
7BC0
ENDCHAR
STARTCHAR wdieresis
ENCODING 7813
SWIDTH 756 0
DWIDTH 12 0
BBX 10 10 1 0
BITMAP
1A00
1200
CCC0
CCC0
CCC0
CCC0
CCC0
CCC0
FFC0
7F80
ENDCHAR
STARTCHAR Ygrave
ENCODING 7922
SWIDTH 620 0
DWIDTH 10 0
BBX 9 15 0 0
BITMAP
3000
3800
1800
0000
E180
E180
E180
E180
6180
7F80
3F00
0C00
0C00
0C00
0C00
ENDCHAR
STARTCHAR ygrave
ENCODING 7923
SWIDTH 562 0
DWIDTH 9 0
BBX 7 15 1 -3
BITMAP
40
E0
20
00
C6
C6
C6
C6
C6
C6
FE
7E
0E
3C
38
ENDCHAR
STARTCHAR endash
ENCODING 8211
SWIDTH 418 0
DWIDTH 7 0
BBX 5 2 1 5
BITMAP
F8
F8
ENDCHAR
STARTCHAR emdash
ENCODING 8212
SWIDTH 719 0
DWIDTH 12 0
BBX 10 2 1 5
BITMAP
FFC0
FFC0
ENDCHAR
STARTCHAR quoteleft
ENCODING 8216
SWIDTH 246 0
DWIDTH 4 0
BBX 2 4 1 7
BITMAP
C0
C0
C0
C0
ENDCHAR
STARTCHAR quoteright
ENCODING 8217
SWIDTH 245 0
DWIDTH 4 0
BBX 2 4 1 7
BITMAP
C0
C0
40
C0
ENDCHAR
STARTCHAR quotesinglbase
ENCODING 8218
SWIDTH 264 0
DWIDTH 4 0
BBX 2 4 1 -2
BITMAP
C0
C0
40
C0
ENDCHAR
STARTCHAR quotedblleft
ENCODING 8220
SWIDTH 445 0
DWIDTH 7 0
BBX 6 4 1 7
BITMAP
D8
D8
DC
D8
ENDCHAR
STARTCHAR quotedblright
ENCODING 8221
SWIDTH 444 0
DWIDTH 7 0
BBX 5 4 1 7
BITMAP
D8
D8
48
C8
ENDCHAR
STARTCHAR quotedblbase
ENCODING 8222
SWIDTH 463 0
DWIDTH 7 0
BBX 6 4 1 -2
BITMAP
D8
DC
48
C8
ENDCHAR
STARTCHAR dagger
ENCODING 8224
SWIDTH 434 0
DWIDTH 7 0
BBX 5 15 1 -2
BITMAP
70
70
70
F8
F8
70
70
70
70
70
70
70
70
70
70
ENDCHAR
STARTCHAR daggerdbl
ENCODING 8225
SWIDTH 452 0
DWIDTH 7 0
BBX 6 15 1 -2
BITMAP
70
70
70
FC
FC
70
70
70
70
FC
FC
FC
70
70
70
ENDCHAR
STARTCHAR bullet
ENCODING 8226
SWIDTH 354 0
DWIDTH 6 0
BBX 3 3 1 4
BITMAP
E0
E0
60
ENDCHAR
STARTCHAR ellipsis
ENCODING 8230
SWIDTH 789 0
DWIDTH 13 0
BBX 11 3 1 -1
BITMAP
CCE0
CEE0
0440
ENDCHAR
STARTCHAR perthousand
ENCODING 8240
SWIDTH 998 0
DWIDTH 16 0
BBX 14 11 1 0
BITMAP
F300
9300
9600
B400
FC00
0800
1FBC
16B4
34A4
66B4
639C
ENDCHAR
STARTCHAR guilsinglleft
ENCODING 8249
SWIDTH 403 0
DWIDTH 6 0
BBX 5 8 1 0
BITMAP
10
38
70
E0
E0
70
38
10
ENDCHAR
STARTCHAR guilsinglright
ENCODING 8250
SWIDTH 402 0
DWIDTH 6 0
BBX 5 7 1 1
BITMAP
C0
E0
70
38
38
60
C0
ENDCHAR
STARTCHAR fraction
ENCODING 8260
SWIDTH 477 0
DWIDTH 8 0
BBX 7 11 0 0
BITMAP
02
06
04
0C
18
18
30
30
60
40
C0
ENDCHAR
STARTCHAR Euro
ENCODING 8364
SWIDTH 806 0
DWIDTH 13 0
BBX 11 11 1 0
BITMAP
0FE0
1FE0
3840
FE00
FE00
3000
FC00
FC00
1C40
1FE0
07C0
ENDCHAR
STARTCHAR trademark
ENCODING 8482
SWIDTH 606 0
DWIDTH 10 0
BBX 8 4 1 7
BITMAP
EF
45
45
45
ENDCHAR
STARTCHAR partialdiff
ENCODING 8706
SWIDTH 609 0
DWIDTH 10 0
BBX 8 12 1 0
BITMAP
18
0C
0E
1E
7E
EF
C3
C3
C3
C7
FE
3C
ENDCHAR
STARTCHAR product
ENCODING 8719
SWIDTH 632 0
DWIDTH 10 0
BBX 9 11 1 0
BITMAP
FF80
FF80
6600
6600
6600
6600
6600
6600
6600
6600
6600
ENDCHAR
STARTCHAR minus
ENCODING 8722
SWIDTH 543 0
DWIDTH 9 0
BBX 7 2 1 5
BITMAP
FE
FE
ENDCHAR
STARTCHAR infinity
ENCODING 8734
SWIDTH 771 0
DWIDTH 12 0
BBX 11 7 1 2
BITMAP
7380
FFC0
DEE0
CC60
CEE0
FFC0
7BC0
ENDCHAR
STARTCHAR approxequal
ENCODING 8776
SWIDTH 476 0
DWIDTH 8 0
BBX 6 7 1 2
BITMAP
6C
FC
D8
00
EC
FC
C0
ENDCHAR
STARTCHAR notequal
ENCODING 8800
SWIDTH 512 0
DWIDTH 8 0
BBX 6 9 1 1
BITMAP
0C
18
FC
FC
30
FC
FC
60
60
ENDCHAR
STARTCHAR fi
ENCODING 64257
SWIDTH 650 0
DWIDTH 10 0
BBX 10 13 0 0
BITMAP
0600
1FC0
3FC0
7080
7000
FFC0
FFC0
71C0
71C0
71C0
71C0
71C0
71C0
ENDCHAR
STARTCHAR fl
ENCODING 64258
SWIDTH 631 0
DWIDTH 10 0
BBX 9 13 0 0
BITMAP
0780
1F80
3F80
7180
7180
FD80
FD80
7180
7180
7180
7180
7180
7180
ENDCHAR
STARTCHAR .notdef
ENCODING -1
SWIDTH 279 0
DWIDTH 4 0
BBX 1 1 0 0
BITMAP
00
ENDCHAR
STARTCHAR .null
ENCODING -1
SWIDTH 0 0
DWIDTH 0 0
BBX 1 1 0 0
BITMAP
00
ENDCHAR
STARTCHAR nonmarkingreturn
ENCODING -1
SWIDTH 279 0
DWIDTH 4 0
BBX 1 1 0 0
BITMAP
00
ENDCHAR
ENDFONT
